<svg width="1112" height="476" viewBox="0 0 1112 476" fill="none" xmlns="http://www.w3.org/2000/svg">
<rect width="1112" height="476" rx="16" fill="#474747"/>
<path d="M270.562 230H277.203V215.497H292.926V230H299.567V194.842H292.926V209.296H277.203V194.842H270.562V230ZM313.746 230.732C315.781 230.732 317.49 230.423 318.873 229.805C320.273 229.17 321.559 228.161 322.731 226.777V230H328.542V213.886C328.542 212.682 328.493 211.591 328.395 210.614C328.298 209.638 327.988 208.661 327.467 207.685C326.54 205.927 325.172 204.69 323.366 203.974C321.559 203.257 319.492 202.899 317.164 202.899C313.99 202.899 311.484 203.583 309.645 204.95C307.805 206.317 306.552 208.092 305.885 210.273L311.891 212.177C312.314 210.973 313.054 210.134 314.112 209.662C315.17 209.19 316.188 208.954 317.164 208.954C318.727 208.954 319.891 209.247 320.656 209.833C321.421 210.403 321.868 211.306 321.999 212.543C319.524 212.901 317.343 213.251 315.455 213.593C313.567 213.919 311.988 214.309 310.719 214.765C308.603 215.546 307.113 216.612 306.251 217.963C305.388 219.298 304.957 220.885 304.957 222.724C304.957 224.189 305.291 225.532 305.958 226.753C306.641 227.957 307.634 228.926 308.936 229.658C310.255 230.374 311.858 230.732 313.746 230.732ZM315.162 225.508C314.023 225.508 313.12 225.255 312.452 224.751C311.785 224.23 311.451 223.522 311.451 222.627C311.451 221.959 311.663 221.39 312.086 220.918C312.509 220.429 313.209 219.99 314.186 219.599C314.934 219.323 315.854 219.07 316.945 218.842C318.051 218.598 319.72 218.289 321.95 217.915C321.933 218.549 321.885 219.249 321.803 220.014C321.722 220.763 321.543 221.422 321.266 221.992C321.087 222.366 320.745 222.83 320.241 223.384C319.752 223.937 319.085 224.433 318.239 224.873C317.408 225.296 316.383 225.508 315.162 225.508ZM344.617 241.719H351.306V229.048C352.169 229.585 353.121 230 354.163 230.293C355.221 230.586 356.368 230.732 357.605 230.732C360.031 230.732 362.155 230.122 363.978 228.901C365.801 227.681 367.217 226.02 368.226 223.921C369.251 221.821 369.764 219.453 369.764 216.816C369.764 214.13 369.243 211.746 368.202 209.662C367.176 207.563 365.728 205.911 363.856 204.706C361.984 203.502 359.787 202.899 357.264 202.899C355.896 202.899 354.643 203.095 353.504 203.485C352.381 203.86 351.372 204.397 350.476 205.097V203.632H344.617V241.719ZM356.531 224.824C354.318 224.824 352.755 224.092 351.844 222.627C350.932 221.145 350.476 219.209 350.476 216.816C350.476 214.423 350.924 212.494 351.819 211.03C352.731 209.548 354.22 208.808 356.287 208.808C357.768 208.808 358.981 209.174 359.925 209.906C360.885 210.623 361.593 211.591 362.049 212.812C362.505 214.016 362.733 215.351 362.733 216.816C362.733 218.297 362.513 219.648 362.073 220.869C361.634 222.073 360.958 223.034 360.047 223.75C359.136 224.466 357.964 224.824 356.531 224.824ZM375.088 230H384.121C384.854 230 385.716 229.984 386.709 229.951C387.702 229.902 388.516 229.805 389.151 229.658C391.446 229.121 393.196 228.144 394.4 226.728C395.621 225.296 396.231 223.408 396.231 221.064C396.231 218.623 395.621 216.686 394.4 215.253C393.196 213.805 391.43 212.828 389.102 212.324C388.467 212.193 387.662 212.112 386.685 212.079C385.708 212.047 384.854 212.031 384.121 212.031H381.729V203.632H375.088V230ZM398.868 230H405.509V203.632H398.868V230ZM381.729 224.873V217.158H384.854C385.13 217.158 385.44 217.174 385.782 217.207C386.123 217.239 386.465 217.304 386.807 217.402C387.523 217.597 388.15 218.029 388.687 218.696C389.224 219.347 389.493 220.136 389.493 221.064C389.493 221.91 389.232 222.667 388.711 223.335C388.191 224.002 387.588 224.433 386.905 224.629C386.547 224.726 386.188 224.791 385.83 224.824C385.472 224.857 385.147 224.873 384.854 224.873H381.729ZM412.283 230H418.923V219.892H429.764V230H436.405V203.632H429.764V213.691H418.923V203.632H412.283V230ZM443.183 230H449.97V217.304L459.101 230H467.744L457.588 216.816L467.109 203.632H458.906L449.97 216.328V203.632H443.232L443.183 230ZM481.477 230.732C484.016 230.732 486.351 230.065 488.484 228.73C490.632 227.396 492.203 225.524 493.196 223.115L486.555 221.211C485.546 223.424 483.723 224.531 481.086 224.531C479.279 224.531 477.855 224.026 476.813 223.017C475.788 222.008 475.153 220.56 474.909 218.671H493.415C493.692 215.481 493.367 212.706 492.439 210.346C491.511 207.986 490.079 206.155 488.142 204.853C486.205 203.55 483.853 202.899 481.086 202.899C478.482 202.899 476.178 203.493 474.176 204.682C472.174 205.854 470.604 207.506 469.464 209.638C468.325 211.77 467.755 214.277 467.755 217.158C467.755 219.795 468.333 222.138 469.489 224.189C470.661 226.224 472.272 227.827 474.323 228.999C476.39 230.155 478.775 230.732 481.477 230.732ZM481.379 208.661C482.974 208.661 484.195 209.06 485.041 209.858C485.904 210.655 486.457 211.949 486.701 213.74H475.08C475.78 210.354 477.879 208.661 481.379 208.661ZM519.813 230.781C522.336 230.814 524.574 230.293 526.527 229.219C528.48 228.128 530.01 226.606 531.117 224.653C532.24 222.7 532.801 220.429 532.801 217.841C532.801 215.563 532.354 213.487 531.459 211.616C530.563 209.727 529.278 208.23 527.601 207.123C525.941 206 523.947 205.439 521.619 205.439C520.203 205.439 518.763 205.715 517.298 206.269C515.849 206.822 514.62 207.831 513.611 209.296C513.709 208.026 514.051 206.773 514.637 205.536C515.239 204.283 516.102 203.306 517.225 202.606C518.055 202.086 519.04 201.695 520.179 201.434C521.318 201.174 522.515 200.987 523.768 200.873C525.021 200.743 526.242 200.621 527.43 200.507C528.618 200.393 529.676 200.214 530.604 199.97L530.018 194.11C527.967 194.501 525.965 194.802 524.012 195.013C522.075 195.225 520.236 195.55 518.494 195.99C516.753 196.413 515.158 197.137 513.709 198.163C512.781 198.814 511.902 199.611 511.072 200.556C510.258 201.483 509.591 202.509 509.07 203.632C508.533 204.836 508.118 206.277 507.825 207.953C507.532 209.63 507.345 211.339 507.263 213.08C507.198 214.806 507.231 216.36 507.361 217.744C507.605 220.315 508.224 222.578 509.217 224.531C510.226 226.468 511.609 227.99 513.367 229.097C515.125 230.187 517.274 230.749 519.813 230.781ZM520.106 224.58C518.283 224.58 516.875 224.026 515.882 222.92C514.889 221.797 514.393 220.201 514.393 218.134C514.393 216.132 514.873 214.562 515.833 213.422C516.81 212.267 518.234 211.689 520.106 211.689C521.945 211.689 523.353 212.267 524.329 213.422C525.322 214.562 525.819 216.132 525.819 218.134C525.819 220.088 525.339 221.65 524.378 222.822C523.418 223.994 521.994 224.58 520.106 224.58ZM550.039 230.732C552.676 230.732 554.995 230.146 556.997 228.975C559.016 227.786 560.586 226.151 561.71 224.067C562.849 221.967 563.419 219.55 563.419 216.816C563.419 214.098 562.857 211.697 561.734 209.613C560.611 207.514 559.04 205.87 557.022 204.682C555.02 203.493 552.692 202.899 550.039 202.899C547.435 202.899 545.132 203.485 543.13 204.657C541.128 205.829 539.557 207.465 538.418 209.565C537.278 211.648 536.709 214.065 536.709 216.816C536.709 219.534 537.262 221.943 538.369 224.043C539.492 226.126 541.054 227.762 543.057 228.95C545.059 230.138 547.386 230.732 550.039 230.732ZM550.039 224.531C547.972 224.531 546.401 223.839 545.327 222.456C544.269 221.056 543.74 219.176 543.74 216.816C543.74 214.521 544.245 212.665 545.254 211.249C546.279 209.817 547.874 209.101 550.039 209.101C552.139 209.101 553.718 209.801 554.776 211.2C555.85 212.6 556.387 214.472 556.387 216.816C556.387 219.078 555.858 220.934 554.8 222.383C553.758 223.815 552.171 224.531 550.039 224.531ZM566.346 230C569.52 230.732 571.84 230.537 573.304 229.414C574.786 228.275 575.819 226.159 576.405 223.066C576.568 222.252 576.723 221.276 576.869 220.136C577.015 218.981 577.146 217.776 577.26 216.523C577.39 215.253 577.504 214.033 577.601 212.861C577.715 211.689 577.805 210.68 577.87 209.833H585.341V230H591.982V203.632H572.059C571.945 205.699 571.815 207.782 571.669 209.882C571.522 211.965 571.343 213.943 571.131 215.815C570.936 217.687 570.708 219.323 570.448 220.722C570.155 222.301 569.756 223.392 569.252 223.994C568.763 224.58 567.795 224.743 566.346 224.482V230ZM598.781 230H609.67C610.402 230 611.265 229.984 612.258 229.951C613.251 229.902 614.064 229.805 614.699 229.658C616.994 229.121 618.744 228.144 619.949 226.728C621.169 225.296 621.78 223.408 621.78 221.064C621.78 218.623 621.169 216.686 619.949 215.253C618.744 213.805 616.978 212.828 614.65 212.324C614.016 212.193 613.21 212.112 612.233 212.079C611.257 212.047 610.402 212.031 609.67 212.031H605.422V203.632H598.781V230ZM605.422 224.873V217.158H610.402C610.679 217.158 610.988 217.174 611.33 217.207C611.672 217.239 612.014 217.304 612.355 217.402C613.072 217.597 613.698 218.029 614.235 218.696C614.773 219.347 615.041 220.136 615.041 221.064C615.041 221.91 614.781 222.667 614.26 223.335C613.739 224.002 613.137 224.433 612.453 224.629C612.095 224.726 611.737 224.791 611.379 224.824C611.021 224.857 610.695 224.873 610.402 224.873H605.422ZM626.391 230H658.716V203.632H652.368V224.14H645.727V203.632H639.379V224.14H632.739V203.632H626.391V230ZM677.798 230.732C680.337 230.732 682.673 230.065 684.805 228.73C686.954 227.396 688.524 225.524 689.517 223.115L682.876 221.211C681.867 223.424 680.044 224.531 677.407 224.531C675.601 224.531 674.176 224.026 673.135 223.017C672.109 222.008 671.474 220.56 671.23 218.671H689.737C690.014 215.481 689.688 212.706 688.76 210.346C687.833 207.986 686.4 206.155 684.463 204.853C682.526 203.55 680.174 202.899 677.407 202.899C674.803 202.899 672.5 203.493 670.498 204.682C668.496 205.854 666.925 207.506 665.786 209.638C664.646 211.77 664.077 214.277 664.077 217.158C664.077 219.795 664.655 222.138 665.81 224.189C666.982 226.224 668.593 227.827 670.644 228.999C672.711 230.155 675.096 230.732 677.798 230.732ZM677.7 208.661C679.295 208.661 680.516 209.06 681.363 209.858C682.225 210.655 682.779 211.949 683.023 213.74H671.401C672.101 210.354 674.201 208.661 677.7 208.661ZM711.129 230H717.916V194.842H711.129L704.537 198.798V206.122L711.129 202.069V230ZM736.975 230H743.615V209.833H756.018V203.632H736.975V230ZM772.063 230.732C774.7 230.732 777.019 230.146 779.021 228.975C781.04 227.786 782.61 226.151 783.733 224.067C784.873 221.967 785.443 219.55 785.443 216.816C785.443 214.098 784.881 211.697 783.758 209.613C782.635 207.514 781.064 205.87 779.046 204.682C777.044 203.493 774.716 202.899 772.063 202.899C769.459 202.899 767.156 203.485 765.154 204.657C763.152 205.829 761.581 207.465 760.442 209.565C759.302 211.648 758.733 214.065 758.733 216.816C758.733 219.534 759.286 221.943 760.393 224.043C761.516 226.126 763.078 227.762 765.08 228.95C767.082 230.138 769.41 230.732 772.063 230.732ZM772.063 224.531C769.996 224.531 768.425 223.839 767.351 222.456C766.293 221.056 765.764 219.176 765.764 216.816C765.764 214.521 766.269 212.665 767.278 211.249C768.303 209.817 769.898 209.101 772.063 209.101C774.163 209.101 775.742 209.801 776.8 211.2C777.874 212.6 778.411 214.472 778.411 216.816C778.411 219.078 777.882 220.934 776.824 222.383C775.782 223.815 774.195 224.531 772.063 224.531ZM788.858 235.86H795.109V230H811.174V235.86H817.424V224.873H814.738V203.632H794.376C794.262 206.187 794.116 208.71 793.937 211.2C793.774 213.675 793.546 216.002 793.253 218.183C792.911 220.69 792.439 222.431 791.837 223.408C791.251 224.385 790.258 224.873 788.858 224.873V235.86ZM797.355 224.873C798.022 224.189 798.486 223.4 798.746 222.505C799.007 221.609 799.21 220.446 799.357 219.013C799.503 217.516 799.642 215.88 799.772 214.106C799.918 212.315 800.04 210.533 800.138 208.759H808.097V224.873H797.355ZM828.13 230.732C830.165 230.732 831.874 230.423 833.257 229.805C834.657 229.17 835.943 228.161 837.115 226.777V230H842.926V213.886C842.926 212.682 842.877 211.591 842.779 210.614C842.682 209.638 842.372 208.661 841.851 207.685C840.924 205.927 839.556 204.69 837.75 203.974C835.943 203.257 833.876 202.899 831.548 202.899C828.374 202.899 825.868 203.583 824.029 204.95C822.189 206.317 820.936 208.092 820.269 210.273L826.275 212.177C826.698 210.973 827.438 210.134 828.496 209.662C829.554 209.19 830.572 208.954 831.548 208.954C833.111 208.954 834.275 209.247 835.04 209.833C835.805 210.403 836.252 211.306 836.383 212.543C833.908 212.901 831.727 213.251 829.839 213.593C827.951 213.919 826.372 214.309 825.103 214.765C822.987 215.546 821.497 216.612 820.635 217.963C819.772 219.298 819.341 220.885 819.341 222.724C819.341 224.189 819.675 225.532 820.342 226.753C821.025 227.957 822.018 228.926 823.32 229.658C824.639 230.374 826.242 230.732 828.13 230.732ZM829.546 225.508C828.407 225.508 827.504 225.255 826.836 224.751C826.169 224.23 825.835 223.522 825.835 222.627C825.835 221.959 826.047 221.39 826.47 220.918C826.893 220.429 827.593 219.99 828.57 219.599C829.318 219.323 830.238 219.07 831.329 218.842C832.435 218.598 834.104 218.289 836.334 217.915C836.317 218.549 836.269 219.249 836.187 220.014C836.106 220.763 835.927 221.422 835.65 221.992C835.471 222.366 835.129 222.83 834.625 223.384C834.136 223.937 833.469 224.433 832.623 224.873C831.792 225.296 830.767 225.508 829.546 225.508Z" fill="white"/>
<path d="M257.898 297.732C260.502 297.732 262.781 297.187 264.734 296.097C266.687 295.006 268.209 293.484 269.3 291.531C270.39 289.578 270.936 287.299 270.936 284.695V274.148C270.936 271.543 270.39 269.265 269.3 267.311C268.209 265.358 266.687 263.836 264.734 262.746C262.781 261.655 260.502 261.11 257.898 261.11C255.294 261.11 253.015 261.655 251.062 262.746C249.109 263.836 247.587 265.358 246.496 267.311C245.406 269.265 244.86 271.543 244.86 274.148V284.695C244.86 287.299 245.406 289.578 246.496 291.531C247.587 293.484 249.109 295.006 251.062 296.097C253.015 297.187 255.294 297.732 257.898 297.732ZM257.898 291.433C256.726 291.433 255.668 291.157 254.724 290.603C253.78 290.05 253.031 289.301 252.478 288.357C251.924 287.413 251.648 286.355 251.648 285.183V273.61C251.648 272.439 251.924 271.381 252.478 270.436C253.031 269.492 253.78 268.744 254.724 268.19C255.668 267.637 256.726 267.36 257.898 267.36C259.07 267.36 260.128 267.637 261.072 268.19C262.016 268.744 262.765 269.492 263.318 270.436C263.872 271.381 264.148 272.439 264.148 273.61V285.183C264.148 286.355 263.872 287.413 263.318 288.357C262.765 289.301 262.016 290.05 261.072 290.603C260.128 291.157 259.07 291.433 257.898 291.433ZM277.275 284.158H291.924V279.031H277.275V284.158ZM303.643 297H313.556L324.298 261.842H317.462L308.526 290.75L299.737 261.842H292.901L303.643 297ZM322.101 297H328.938L331.159 289.675H344.392L346.663 297H353.499L342.757 261.842H332.844L322.101 297ZM333.039 283.474L337.727 268.068L342.488 283.474H333.039ZM372.01 297.732C376.047 297.732 379.432 296.731 382.167 294.729C384.917 292.727 386.854 290.017 387.977 286.599L381.288 284.744C380.637 286.86 379.538 288.512 377.992 289.7C376.445 290.888 374.451 291.482 372.01 291.482C368.673 291.482 366.158 290.392 364.466 288.211C362.789 286.013 361.951 283.083 361.951 279.421C361.951 275.759 362.789 272.837 364.466 270.656C366.158 268.459 368.673 267.36 372.01 267.36C374.451 267.36 376.445 267.954 377.992 269.142C379.538 270.314 380.637 271.966 381.288 274.099L387.977 272.243C386.854 268.825 384.917 266.115 382.167 264.113C379.432 262.111 376.047 261.11 372.01 261.11C368.494 261.11 365.459 261.875 362.903 263.405C360.364 264.935 358.403 267.075 357.019 269.826C355.652 272.577 354.968 275.775 354.968 279.421C354.968 283.067 355.652 286.266 357.019 289.016C358.403 291.767 360.364 293.907 362.903 295.437C365.459 296.967 368.494 297.732 372.01 297.732ZM403.129 297H417.973C418.315 297 418.771 296.992 419.34 296.976C419.926 296.943 420.447 296.902 420.903 296.854C422.937 296.642 424.622 296.023 425.957 294.998C427.308 293.956 428.317 292.646 428.984 291.067C429.652 289.472 429.985 287.739 429.985 285.867C429.985 283.995 429.643 282.27 428.96 280.691C428.292 279.096 427.283 277.785 425.932 276.76C424.598 275.718 422.921 275.092 420.903 274.88C420.447 274.831 419.926 274.799 419.34 274.782C418.754 274.75 418.299 274.734 417.973 274.734H409.77V268.044H427.251V261.842H403.129V297ZM409.77 290.799V280.935H417.68C418.022 280.935 418.396 280.951 418.803 280.984C419.21 281 419.584 281.049 419.926 281.13C421.277 281.423 422.172 282.05 422.612 283.01C423.068 283.954 423.296 284.906 423.296 285.867C423.296 286.811 423.068 287.763 422.612 288.723C422.172 289.684 421.277 290.31 419.926 290.603C419.584 290.668 419.21 290.717 418.803 290.75C418.396 290.782 418.022 290.799 417.68 290.799H409.77ZM442.212 297.732C444.246 297.732 445.955 297.423 447.339 296.805C448.739 296.17 450.025 295.161 451.197 293.777V297H457.007V280.886C457.007 279.682 456.958 278.591 456.861 277.614C456.763 276.638 456.454 275.661 455.933 274.685C455.005 272.927 453.638 271.69 451.831 270.974C450.025 270.257 447.957 269.899 445.63 269.899C442.456 269.899 439.949 270.583 438.11 271.95C436.271 273.317 435.018 275.092 434.35 277.273L440.356 279.177C440.779 277.973 441.52 277.134 442.578 276.662C443.636 276.19 444.653 275.954 445.63 275.954C447.192 275.954 448.356 276.247 449.121 276.833C449.886 277.403 450.334 278.306 450.464 279.543C447.99 279.901 445.809 280.251 443.921 280.593C442.033 280.919 440.454 281.309 439.184 281.765C437.068 282.546 435.579 283.612 434.716 284.963C433.854 286.298 433.422 287.885 433.422 289.724C433.422 291.189 433.756 292.532 434.423 293.753C435.107 294.957 436.1 295.926 437.402 296.658C438.72 297.374 440.324 297.732 442.212 297.732ZM443.628 292.508C442.489 292.508 441.585 292.255 440.918 291.751C440.25 291.23 439.917 290.522 439.917 289.627C439.917 288.959 440.128 288.39 440.552 287.918C440.975 287.429 441.675 286.99 442.651 286.599C443.4 286.323 444.32 286.07 445.41 285.842C446.517 285.598 448.185 285.289 450.415 284.915C450.399 285.549 450.35 286.249 450.269 287.014C450.187 287.763 450.008 288.422 449.732 288.992C449.553 289.366 449.211 289.83 448.706 290.384C448.218 290.937 447.551 291.433 446.704 291.873C445.874 292.296 444.849 292.508 443.628 292.508ZM463.307 297H469.948V286.892H480.788V297H487.429V270.632H480.788V280.691H469.948V270.632H463.307V297ZM506.121 297.732C508.758 297.732 511.078 297.146 513.08 295.975C515.098 294.786 516.669 293.151 517.792 291.067C518.931 288.967 519.501 286.55 519.501 283.816C519.501 281.098 518.939 278.697 517.816 276.613C516.693 274.514 515.122 272.87 513.104 271.682C511.102 270.493 508.775 269.899 506.121 269.899C503.517 269.899 501.214 270.485 499.212 271.657C497.21 272.829 495.639 274.465 494.5 276.565C493.361 278.648 492.791 281.065 492.791 283.816C492.791 286.534 493.344 288.943 494.451 291.043C495.574 293.126 497.137 294.762 499.139 295.95C501.141 297.138 503.468 297.732 506.121 297.732ZM506.121 291.531C504.054 291.531 502.484 290.839 501.409 289.456C500.351 288.056 499.822 286.176 499.822 283.816C499.822 281.521 500.327 279.665 501.336 278.249C502.362 276.817 503.957 276.101 506.121 276.101C508.221 276.101 509.8 276.801 510.858 278.2C511.932 279.6 512.469 281.472 512.469 283.816C512.469 286.078 511.94 287.934 510.882 289.383C509.841 290.815 508.254 291.531 506.121 291.531ZM524.821 297H538.005C538.868 297 539.69 296.959 540.471 296.878C541.269 296.797 541.96 296.674 542.546 296.512C544.255 296.023 545.533 295.161 546.38 293.924C547.242 292.687 547.674 291.189 547.674 289.431C547.674 287.787 547.348 286.55 546.697 285.72C546.046 284.874 545.281 284.255 544.402 283.865C543.849 283.604 543.23 283.425 542.546 283.328C543.132 283.181 543.718 282.888 544.304 282.449C544.923 281.977 545.419 281.383 545.794 280.666C546.168 279.934 546.355 278.982 546.355 277.81C546.355 275.824 545.859 274.31 544.866 273.269C543.873 272.227 542.774 271.527 541.57 271.169C541.082 271.022 540.471 270.9 539.739 270.803C539.006 270.689 538.152 270.632 537.175 270.632H524.821V297ZM531.56 281.277V275.759H535.613C535.759 275.759 536.101 275.767 536.638 275.783C537.191 275.8 537.647 275.873 538.005 276.003C538.542 276.166 538.925 276.483 539.153 276.955C539.397 277.411 539.519 277.924 539.519 278.493C539.519 279.031 539.413 279.519 539.202 279.958C538.99 280.382 538.673 280.691 538.249 280.886C537.94 281.033 537.549 281.138 537.077 281.203C536.622 281.252 536.133 281.277 535.613 281.277H531.56ZM531.56 291.971V286.404H537.517C537.745 286.404 538.038 286.42 538.396 286.453C538.77 286.469 539.112 286.55 539.421 286.697C539.796 286.86 540.129 287.136 540.422 287.527C540.732 287.918 540.886 288.455 540.886 289.138C540.886 289.627 540.78 290.107 540.569 290.579C540.373 291.051 540.04 291.385 539.568 291.58C538.949 291.84 538.266 291.971 537.517 291.971H531.56ZM571.677 297.732C573.631 297.732 575.437 297.407 577.097 296.756C578.758 296.105 580.092 295.136 581.102 293.85C582.111 292.565 582.615 290.978 582.615 289.09C582.615 287.82 582.371 286.681 581.883 285.671C581.411 284.662 580.743 283.816 579.881 283.132C580.548 282.286 581.02 281.423 581.297 280.544C581.59 279.665 581.736 278.77 581.736 277.859C581.736 276.084 581.264 274.611 580.32 273.44C579.392 272.251 578.172 271.364 576.658 270.778C575.161 270.192 573.565 269.899 571.873 269.899C569.871 269.899 567.95 270.282 566.111 271.047C564.288 271.796 562.627 272.797 561.13 274.05L564.792 278.591C565.769 277.907 566.851 277.313 568.039 276.809C569.228 276.304 570.408 276.052 571.58 276.052C572.459 276.052 573.232 276.231 573.899 276.589C574.566 276.947 574.9 277.582 574.9 278.493C574.9 279.584 574.42 280.251 573.46 280.495C572.499 280.723 571.335 280.837 569.968 280.837H568.406V286.013H569.968C570.88 286.013 571.783 286.021 572.678 286.038C573.59 286.054 574.339 286.225 574.925 286.55C575.527 286.876 575.828 287.494 575.828 288.406C575.828 289.35 575.453 290.107 574.705 290.677C573.972 291.246 572.947 291.531 571.628 291.531C570.359 291.531 569.187 291.262 568.113 290.725C567.055 290.188 566.062 289.448 565.134 288.504L559.909 292.019C561.114 293.793 562.758 295.193 564.841 296.219C566.941 297.228 569.22 297.732 571.677 297.732ZM595.33 297.732C597.365 297.732 599.074 297.423 600.457 296.805C601.857 296.17 603.143 295.161 604.315 293.777V297H610.126V280.886C610.126 279.682 610.077 278.591 609.979 277.614C609.881 276.638 609.572 275.661 609.051 274.685C608.124 272.927 606.756 271.69 604.95 270.974C603.143 270.257 601.076 269.899 598.748 269.899C595.574 269.899 593.068 270.583 591.228 271.95C589.389 273.317 588.136 275.092 587.468 277.273L593.475 279.177C593.898 277.973 594.638 277.134 595.696 276.662C596.754 276.19 597.772 275.954 598.748 275.954C600.311 275.954 601.475 276.247 602.24 276.833C603.005 277.403 603.452 278.306 603.582 279.543C601.108 279.901 598.927 280.251 597.039 280.593C595.151 280.919 593.572 281.309 592.303 281.765C590.187 282.546 588.697 283.612 587.835 284.963C586.972 286.298 586.541 287.885 586.541 289.724C586.541 291.189 586.874 292.532 587.542 293.753C588.225 294.957 589.218 295.926 590.52 296.658C591.839 297.374 593.442 297.732 595.33 297.732ZM596.746 292.508C595.607 292.508 594.703 292.255 594.036 291.751C593.369 291.23 593.035 290.522 593.035 289.627C593.035 288.959 593.247 288.39 593.67 287.918C594.093 287.429 594.793 286.99 595.77 286.599C596.518 286.323 597.438 286.07 598.528 285.842C599.635 285.598 601.304 285.289 603.534 284.915C603.517 285.549 603.468 286.249 603.387 287.014C603.306 287.763 603.127 288.422 602.85 288.992C602.671 289.366 602.329 289.83 601.824 290.384C601.336 290.937 600.669 291.433 599.822 291.873C598.992 292.296 597.967 292.508 596.746 292.508ZM626.201 297H639.385C640.247 297 641.069 296.959 641.851 296.878C642.648 296.797 643.34 296.674 643.926 296.512C645.635 296.023 646.913 295.161 647.759 293.924C648.622 292.687 649.053 291.189 649.053 289.431C649.053 287.787 648.727 286.55 648.076 285.72C647.425 284.874 646.66 284.255 645.781 283.865C645.228 283.604 644.609 283.425 643.926 283.328C644.512 283.181 645.098 282.888 645.684 282.449C646.302 281.977 646.799 281.383 647.173 280.666C647.547 279.934 647.735 278.982 647.735 277.81C647.735 275.824 647.238 274.31 646.245 273.269C645.252 272.227 644.154 271.527 642.949 271.169C642.461 271.022 641.851 270.9 641.118 270.803C640.386 270.689 639.531 270.632 638.555 270.632H626.201V297ZM632.939 281.277V275.759H636.992C637.138 275.759 637.48 275.767 638.017 275.783C638.571 275.8 639.027 275.873 639.385 276.003C639.922 276.166 640.304 276.483 640.532 276.955C640.776 277.411 640.898 277.924 640.898 278.493C640.898 279.031 640.793 279.519 640.581 279.958C640.369 280.382 640.052 280.691 639.629 280.886C639.32 281.033 638.929 281.138 638.457 281.203C638.001 281.252 637.513 281.277 636.992 281.277H632.939ZM632.939 291.971V286.404H638.896C639.124 286.404 639.417 286.42 639.775 286.453C640.15 286.469 640.491 286.55 640.801 286.697C641.175 286.86 641.509 287.136 641.802 287.527C642.111 287.918 642.266 288.455 642.266 289.138C642.266 289.627 642.16 290.107 641.948 290.579C641.753 291.051 641.419 291.385 640.947 291.58C640.329 291.84 639.645 291.971 638.896 291.971H632.939ZM665.576 297.732C668.636 297.732 671.208 296.976 673.291 295.462C675.375 293.948 676.791 291.791 677.54 288.992L670.752 287.576C670.362 288.845 669.776 289.822 668.994 290.506C668.213 291.189 667.074 291.531 665.576 291.531C663.574 291.531 662.061 290.823 661.035 289.407C660.026 287.975 659.521 286.111 659.521 283.816C659.521 281.619 660.002 279.787 660.962 278.323C661.938 276.841 663.477 276.101 665.576 276.101C666.797 276.101 667.888 276.483 668.848 277.248C669.824 278.013 670.508 279.079 670.899 280.447L677.54 278.689C676.954 275.971 675.603 273.83 673.487 272.268C671.387 270.689 668.783 269.899 665.674 269.899C662.988 269.899 660.661 270.502 658.691 271.706C656.722 272.911 655.192 274.563 654.101 276.662C653.027 278.762 652.49 281.147 652.49 283.816C652.49 286.453 653.011 288.821 654.052 290.921C655.094 293.02 656.592 294.681 658.545 295.901C660.498 297.122 662.842 297.732 665.576 297.732ZM696.535 266.921H702.394V261.061H696.535V266.921ZM686.183 266.921H692.042V261.061H686.183V266.921ZM694.679 297.732C697.218 297.732 699.554 297.065 701.686 295.73C703.835 294.396 705.406 292.524 706.399 290.115L699.758 288.211C698.748 290.424 696.925 291.531 694.289 291.531C692.482 291.531 691.058 291.026 690.016 290.017C688.991 289.008 688.356 287.56 688.112 285.671H706.618C706.895 282.481 706.569 279.706 705.642 277.346C704.714 274.986 703.282 273.155 701.345 271.853C699.408 270.55 697.056 269.899 694.289 269.899C691.684 269.899 689.381 270.493 687.379 271.682C685.377 272.854 683.806 274.506 682.667 276.638C681.528 278.77 680.958 281.277 680.958 284.158C680.958 286.795 681.536 289.138 682.692 291.189C683.863 293.224 685.475 294.827 687.526 295.999C689.593 297.155 691.977 297.732 694.679 297.732ZM694.582 275.661C696.177 275.661 697.398 276.06 698.244 276.858C699.107 277.655 699.66 278.949 699.904 280.74H688.283C688.982 277.354 691.082 275.661 694.582 275.661ZM721.858 297H735.042C735.905 297 736.727 296.959 737.508 296.878C738.305 296.797 738.997 296.674 739.583 296.512C741.292 296.023 742.57 295.161 743.416 293.924C744.279 292.687 744.71 291.189 744.71 289.431C744.71 287.787 744.385 286.55 743.734 285.72C743.083 284.874 742.318 284.255 741.439 283.865C740.885 283.604 740.267 283.425 739.583 283.328C740.169 283.181 740.755 282.888 741.341 282.449C741.959 281.977 742.456 281.383 742.83 280.666C743.205 279.934 743.392 278.982 743.392 277.81C743.392 275.824 742.895 274.31 741.903 273.269C740.91 272.227 739.811 271.527 738.606 271.169C738.118 271.022 737.508 270.9 736.775 270.803C736.043 270.689 735.188 270.632 734.212 270.632H721.858V297ZM728.596 281.277V275.759H732.649C732.796 275.759 733.138 275.767 733.675 275.783C734.228 275.8 734.684 275.873 735.042 276.003C735.579 276.166 735.962 276.483 736.189 276.955C736.434 277.411 736.556 277.924 736.556 278.493C736.556 279.031 736.45 279.519 736.238 279.958C736.027 280.382 735.709 280.691 735.286 280.886C734.977 281.033 734.586 281.138 734.114 281.203C733.658 281.252 733.17 281.277 732.649 281.277H728.596ZM728.596 291.971V286.404H734.554C734.781 286.404 735.074 286.42 735.433 286.453C735.807 286.469 736.149 286.55 736.458 286.697C736.832 286.86 737.166 287.136 737.459 287.527C737.768 287.918 737.923 288.455 737.923 289.138C737.923 289.627 737.817 290.107 737.605 290.579C737.41 291.051 737.076 291.385 736.604 291.58C735.986 291.84 735.302 291.971 734.554 291.971H728.596ZM749.563 308.719H756.253V296.048C757.115 296.585 758.068 297 759.109 297.293C760.167 297.586 761.315 297.732 762.552 297.732C764.977 297.732 767.101 297.122 768.924 295.901C770.747 294.681 772.163 293.02 773.172 290.921C774.198 288.821 774.711 286.453 774.711 283.816C774.711 281.13 774.19 278.746 773.148 276.662C772.123 274.563 770.674 272.911 768.802 271.706C766.93 270.502 764.733 269.899 762.21 269.899C760.843 269.899 759.59 270.095 758.45 270.485C757.327 270.86 756.318 271.397 755.423 272.097V270.632H749.563V308.719ZM761.478 291.824C759.264 291.824 757.701 291.092 756.79 289.627C755.878 288.145 755.423 286.209 755.423 283.816C755.423 281.423 755.87 279.494 756.766 278.03C757.677 276.548 759.166 275.808 761.233 275.808C762.715 275.808 763.927 276.174 764.871 276.906C765.832 277.623 766.54 278.591 766.995 279.812C767.451 281.016 767.679 282.351 767.679 283.816C767.679 285.297 767.459 286.648 767.02 287.869C766.58 289.073 765.905 290.034 764.993 290.75C764.082 291.466 762.91 291.824 761.478 291.824ZM792.339 297.732C794.879 297.732 797.214 297.065 799.346 295.73C801.495 294.396 803.066 292.524 804.059 290.115L797.418 288.211C796.409 290.424 794.586 291.531 791.949 291.531C790.142 291.531 788.718 291.026 787.676 290.017C786.651 289.008 786.016 287.56 785.772 285.671H804.278C804.555 282.481 804.229 279.706 803.302 277.346C802.374 274.986 800.942 273.155 799.005 271.853C797.068 270.55 794.716 269.899 791.949 269.899C789.344 269.899 787.041 270.493 785.039 271.682C783.037 272.854 781.467 274.506 780.327 276.638C779.188 278.77 778.618 281.277 778.618 284.158C778.618 286.795 779.196 289.138 780.352 291.189C781.524 293.224 783.135 294.827 785.186 295.999C787.253 297.155 789.637 297.732 792.339 297.732ZM792.242 275.661C793.837 275.661 795.058 276.06 795.904 276.858C796.767 277.655 797.32 278.949 797.564 280.74H785.943C786.643 277.354 788.742 275.661 792.242 275.661ZM809.027 297H815.375V283.865L822.406 297H824.75L831.782 283.865V297H838.13V270.632H832.758L823.578 287.722L814.398 270.632H809.027V297ZM843.518 297H850.452L855.481 288.601C855.628 288.601 855.766 288.601 855.897 288.601C856.027 288.601 856.149 288.601 856.263 288.601H860.511V297H867.152V270.632H856.263C855.661 270.632 854.887 270.648 853.943 270.681C853.016 270.697 852.112 270.795 851.233 270.974C849.085 271.381 847.368 272.325 846.082 273.806C844.796 275.287 844.153 277.24 844.153 279.665C844.153 281.7 844.609 283.393 845.52 284.744C846.448 286.095 847.669 287.079 849.182 287.698L843.518 297ZM855.53 283.474C855.27 283.474 854.961 283.458 854.603 283.425C854.261 283.393 853.919 283.328 853.577 283.23C852.894 283.035 852.275 282.62 851.722 281.985C851.168 281.334 850.891 280.544 850.891 279.617C850.891 278.738 851.152 277.964 851.673 277.297C852.194 276.63 852.796 276.198 853.479 276.003C853.854 275.905 854.212 275.84 854.554 275.808C854.912 275.775 855.237 275.759 855.53 275.759H860.511V283.474H855.53Z" fill="white"/>
<path d="M276.881 364H283.521V335.044H299.245V364H305.886V328.842H276.881V364ZM312.691 375.719H319.381V363.048C320.244 363.585 321.196 364 322.238 364.293C323.295 364.586 324.443 364.732 325.68 364.732C328.105 364.732 330.229 364.122 332.052 362.901C333.875 361.681 335.291 360.02 336.301 357.921C337.326 355.821 337.839 353.453 337.839 350.816C337.839 348.13 337.318 345.746 336.276 343.662C335.251 341.563 333.802 339.911 331.93 338.706C330.058 337.502 327.861 336.899 325.338 336.899C323.971 336.899 322.718 337.095 321.578 337.485C320.455 337.86 319.446 338.397 318.551 339.097V337.632H312.691V375.719ZM324.606 358.824C322.392 358.824 320.83 358.092 319.918 356.627C319.007 355.145 318.551 353.209 318.551 350.816C318.551 348.423 318.998 346.494 319.894 345.03C320.805 343.548 322.294 342.808 324.362 342.808C325.843 342.808 327.055 343.174 327.999 343.906C328.96 344.623 329.668 345.591 330.124 346.812C330.579 348.016 330.807 349.351 330.807 350.816C330.807 352.297 330.587 353.648 330.148 354.869C329.708 356.073 329.033 357.034 328.122 357.75C327.21 358.466 326.038 358.824 324.606 358.824ZM355.077 364.732C357.714 364.732 360.033 364.146 362.035 362.975C364.053 361.786 365.624 360.151 366.747 358.067C367.887 355.967 368.456 353.55 368.456 350.816C368.456 348.098 367.895 345.697 366.772 343.613C365.649 341.514 364.078 339.87 362.06 338.682C360.057 337.493 357.73 336.899 355.077 336.899C352.473 336.899 350.169 337.485 348.167 338.657C346.165 339.829 344.595 341.465 343.455 343.565C342.316 345.648 341.746 348.065 341.746 350.816C341.746 353.534 342.3 355.943 343.406 358.043C344.53 360.126 346.092 361.762 348.094 362.95C350.096 364.138 352.424 364.732 355.077 364.732ZM355.077 358.531C353.01 358.531 351.439 357.839 350.365 356.456C349.307 355.056 348.778 353.176 348.778 350.816C348.778 348.521 349.282 346.665 350.291 345.249C351.317 343.817 352.912 343.101 355.077 343.101C357.177 343.101 358.755 343.801 359.813 345.2C360.888 346.6 361.425 348.472 361.425 350.816C361.425 353.078 360.896 354.934 359.838 356.383C358.796 357.815 357.209 358.531 355.077 358.531ZM382.198 364.732C384.151 364.732 385.958 364.407 387.618 363.756C389.278 363.105 390.613 362.136 391.622 360.85C392.631 359.565 393.136 357.978 393.136 356.09C393.136 354.82 392.892 353.681 392.404 352.671C391.932 351.662 391.264 350.816 390.402 350.132C391.069 349.286 391.541 348.423 391.818 347.544C392.111 346.665 392.257 345.77 392.257 344.859C392.257 343.084 391.785 341.611 390.841 340.44C389.913 339.251 388.692 338.364 387.179 337.778C385.681 337.192 384.086 336.899 382.393 336.899C380.391 336.899 378.471 337.282 376.631 338.047C374.808 338.796 373.148 339.797 371.651 341.05L375.313 345.591C376.29 344.907 377.372 344.313 378.56 343.809C379.748 343.304 380.928 343.052 382.1 343.052C382.979 343.052 383.752 343.231 384.42 343.589C385.087 343.947 385.421 344.582 385.421 345.493C385.421 346.584 384.941 347.251 383.98 347.495C383.02 347.723 381.856 347.837 380.489 347.837H378.926V353.013H380.489C381.401 353.013 382.304 353.021 383.199 353.038C384.111 353.054 384.859 353.225 385.445 353.55C386.048 353.876 386.349 354.494 386.349 355.406C386.349 356.35 385.974 357.107 385.226 357.677C384.493 358.246 383.468 358.531 382.149 358.531C380.88 358.531 379.708 358.262 378.633 357.725C377.576 357.188 376.583 356.448 375.655 355.504L370.43 359.019C371.635 360.793 373.278 362.193 375.362 363.219C377.462 364.228 379.74 364.732 382.198 364.732ZM398.478 375.719H405.167V363.048C406.03 363.585 406.982 364 408.024 364.293C409.082 364.586 410.229 364.732 411.466 364.732C413.892 364.732 416.016 364.122 417.839 362.901C419.662 361.681 421.078 360.02 422.087 357.921C423.112 355.821 423.625 353.453 423.625 350.816C423.625 348.13 423.104 345.746 422.062 343.662C421.037 341.563 419.588 339.911 417.717 338.706C415.845 337.502 413.647 336.899 411.125 336.899C409.757 336.899 408.504 337.095 407.365 337.485C406.242 337.86 405.232 338.397 404.337 339.097V337.632H398.478V375.719ZM410.392 358.824C408.178 358.824 406.616 358.092 405.704 356.627C404.793 355.145 404.337 353.209 404.337 350.816C404.337 348.423 404.785 346.494 405.68 345.03C406.591 343.548 408.081 342.808 410.148 342.808C411.629 342.808 412.842 343.174 413.786 343.906C414.746 344.623 415.454 345.591 415.91 346.812C416.366 348.016 416.593 349.351 416.593 350.816C416.593 352.297 416.374 353.648 415.934 354.869C415.495 356.073 414.819 357.034 413.908 357.75C412.996 358.466 411.824 358.824 410.392 358.824ZM436.322 364.732C438.357 364.732 440.066 364.423 441.449 363.805C442.849 363.17 444.135 362.161 445.307 360.777V364H451.117V347.886C451.117 346.682 451.069 345.591 450.971 344.614C450.873 343.638 450.564 342.661 450.043 341.685C449.115 339.927 447.748 338.69 445.941 337.974C444.135 337.257 442.068 336.899 439.74 336.899C436.566 336.899 434.059 337.583 432.22 338.95C430.381 340.317 429.128 342.092 428.46 344.273L434.466 346.177C434.89 344.973 435.63 344.134 436.688 343.662C437.746 343.19 438.763 342.954 439.74 342.954C441.303 342.954 442.466 343.247 443.231 343.833C443.996 344.403 444.444 345.306 444.574 346.543C442.1 346.901 439.919 347.251 438.031 347.593C436.143 347.919 434.564 348.309 433.294 348.765C431.179 349.546 429.689 350.612 428.827 351.963C427.964 353.298 427.533 354.885 427.533 356.724C427.533 358.189 427.866 359.532 428.534 360.753C429.217 361.957 430.21 362.926 431.512 363.658C432.831 364.374 434.434 364.732 436.322 364.732ZM437.738 359.508C436.599 359.508 435.695 359.255 435.028 358.751C434.361 358.23 434.027 357.522 434.027 356.627C434.027 355.959 434.239 355.39 434.662 354.918C435.085 354.429 435.785 353.99 436.761 353.599C437.51 353.323 438.43 353.07 439.52 352.842C440.627 352.598 442.295 352.289 444.525 351.915C444.509 352.549 444.46 353.249 444.379 354.014C444.297 354.763 444.118 355.422 443.842 355.992C443.663 356.366 443.321 356.83 442.816 357.384C442.328 357.937 441.661 358.433 440.814 358.873C439.984 359.296 438.959 359.508 437.738 359.508ZM472.554 364H479.244V337.632H472.554V349.449C472.001 349.888 471.317 350.262 470.503 350.572C469.706 350.865 468.745 351.011 467.622 351.011C466.304 351.011 465.287 350.759 464.57 350.254C463.871 349.75 463.374 348.928 463.081 347.788C462.918 347.105 462.821 346.421 462.788 345.738C462.756 345.038 462.739 344.533 462.739 344.224V337.632H456.001V344.224C456.001 344.712 456.017 345.485 456.05 346.543C456.082 347.601 456.196 348.635 456.391 349.644C456.863 351.988 457.897 353.778 459.492 355.015C461.104 356.252 463.276 356.871 466.011 356.871C468.485 356.871 470.666 356.399 472.554 355.455V364ZM486.028 364H492.669V353.892H503.509V364H510.15V337.632H503.509V347.691H492.669V337.632H486.028V364ZM528.843 364.732C531.48 364.732 533.799 364.146 535.801 362.975C537.82 361.786 539.39 360.151 540.513 358.067C541.653 355.967 542.222 353.55 542.222 350.816C542.222 348.098 541.661 345.697 540.538 343.613C539.415 341.514 537.844 339.87 535.826 338.682C533.824 337.493 531.496 336.899 528.843 336.899C526.239 336.899 523.936 337.485 521.934 338.657C519.931 339.829 518.361 341.465 517.221 343.565C516.082 345.648 515.512 348.065 515.512 350.816C515.512 353.534 516.066 355.943 517.173 358.043C518.296 360.126 519.858 361.762 521.86 362.95C523.862 364.138 526.19 364.732 528.843 364.732ZM528.843 358.531C526.776 358.531 525.205 357.839 524.131 356.456C523.073 355.056 522.544 353.176 522.544 350.816C522.544 348.521 523.048 346.665 524.058 345.249C525.083 343.817 526.678 343.101 528.843 343.101C530.943 343.101 532.521 343.801 533.579 345.2C534.654 346.6 535.191 348.472 535.191 350.816C535.191 353.078 534.662 354.934 533.604 356.383C532.562 357.815 530.975 358.531 528.843 358.531ZM559.213 364.732C562.273 364.732 564.845 363.976 566.928 362.462C569.012 360.948 570.428 358.791 571.176 355.992L564.389 354.576C563.998 355.845 563.412 356.822 562.631 357.506C561.85 358.189 560.71 358.531 559.213 358.531C557.211 358.531 555.697 357.823 554.672 356.407C553.663 354.975 553.158 353.111 553.158 350.816C553.158 348.619 553.638 346.787 554.599 345.323C555.575 343.841 557.113 343.101 559.213 343.101C560.434 343.101 561.524 343.483 562.485 344.248C563.461 345.013 564.145 346.079 564.535 347.447L571.176 345.689C570.59 342.971 569.239 340.83 567.123 339.268C565.024 337.689 562.419 336.899 559.311 336.899C556.625 336.899 554.297 337.502 552.328 338.706C550.358 339.911 548.828 341.563 547.738 343.662C546.664 345.762 546.127 348.147 546.127 350.816C546.127 353.453 546.647 355.821 547.689 357.921C548.731 360.02 550.228 361.681 552.181 362.901C554.135 364.122 556.478 364.732 559.213 364.732ZM582.505 364H589.146V343.491H597.789V337.632H573.862V343.491H582.505V364ZM602.381 364H613.27C614.002 364 614.865 363.984 615.858 363.951C616.851 363.902 617.665 363.805 618.3 363.658C620.595 363.121 622.344 362.144 623.549 360.728C624.77 359.296 625.38 357.408 625.38 355.064C625.38 352.623 624.77 350.686 623.549 349.253C622.344 347.805 620.578 346.828 618.251 346.324C617.616 346.193 616.81 346.112 615.834 346.079C614.857 346.047 614.002 346.031 613.27 346.031H609.022V337.632H602.381V364ZM609.022 358.873V351.158H614.002C614.279 351.158 614.588 351.174 614.93 351.207C615.272 351.239 615.614 351.304 615.956 351.402C616.672 351.597 617.299 352.029 617.836 352.696C618.373 353.347 618.641 354.136 618.641 355.064C618.641 355.91 618.381 356.667 617.86 357.335C617.339 358.002 616.737 358.433 616.053 358.629C615.695 358.726 615.337 358.791 614.979 358.824C614.621 358.857 614.295 358.873 614.002 358.873H609.022ZM640.482 364H647.123V343.833H657.377V364H664.018V337.632H640.482V364ZM670.81 375.719H677.499V363.048C678.362 363.585 679.314 364 680.356 364.293C681.414 364.586 682.561 364.732 683.798 364.732C686.224 364.732 688.348 364.122 690.171 362.901C691.994 361.681 693.41 360.02 694.419 357.921C695.444 355.821 695.957 353.453 695.957 350.816C695.957 348.13 695.436 345.746 694.395 343.662C693.369 341.563 691.921 339.911 690.049 338.706C688.177 337.502 685.98 336.899 683.457 336.899C682.089 336.899 680.836 337.095 679.697 337.485C678.574 337.86 677.565 338.397 676.669 339.097V337.632H670.81V375.719ZM682.724 358.824C680.511 358.824 678.948 358.092 678.037 356.627C677.125 355.145 676.669 353.209 676.669 350.816C676.669 348.423 677.117 346.494 678.012 345.03C678.924 343.548 680.413 342.808 682.48 342.808C683.961 342.808 685.174 343.174 686.118 343.906C687.078 344.623 687.786 345.591 688.242 346.812C688.698 348.016 688.926 349.351 688.926 350.816C688.926 352.297 688.706 353.648 688.266 354.869C687.827 356.073 687.151 357.034 686.24 357.75C685.328 358.466 684.157 358.824 682.724 358.824ZM713.195 364.732C715.832 364.732 718.152 364.146 720.154 362.975C722.172 361.786 723.743 360.151 724.866 358.067C726.005 355.967 726.575 353.55 726.575 350.816C726.575 348.098 726.013 345.697 724.89 343.613C723.767 341.514 722.196 339.87 720.178 338.682C718.176 337.493 715.848 336.899 713.195 336.899C710.591 336.899 708.288 337.485 706.286 338.657C704.284 339.829 702.713 341.465 701.574 343.565C700.434 345.648 699.865 348.065 699.865 350.816C699.865 353.534 700.418 355.943 701.525 358.043C702.648 360.126 704.211 361.762 706.213 362.95C708.215 364.138 710.542 364.732 713.195 364.732ZM713.195 358.531C711.128 358.531 709.557 357.839 708.483 356.456C707.425 355.056 706.896 353.176 706.896 350.816C706.896 348.521 707.401 346.665 708.41 345.249C709.435 343.817 711.03 343.101 713.195 343.101C715.295 343.101 716.874 343.801 717.932 345.2C719.006 346.6 719.543 348.472 719.543 350.816C719.543 353.078 719.014 354.934 717.956 356.383C716.915 357.815 715.328 358.531 713.195 358.531ZM744.2 364.732C746.739 364.732 749.075 364.065 751.207 362.73C753.356 361.396 754.926 359.524 755.919 357.115L749.278 355.211C748.269 357.424 746.446 358.531 743.809 358.531C742.003 358.531 740.579 358.026 739.537 357.017C738.511 356.008 737.877 354.56 737.632 352.671H756.139C756.416 349.481 756.09 346.706 755.162 344.346C754.235 341.986 752.802 340.155 750.865 338.853C748.928 337.55 746.576 336.899 743.809 336.899C741.205 336.899 738.902 337.493 736.9 338.682C734.898 339.854 733.327 341.506 732.188 343.638C731.049 345.77 730.479 348.277 730.479 351.158C730.479 353.795 731.057 356.138 732.212 358.189C733.384 360.224 734.996 361.827 737.046 362.999C739.114 364.155 741.498 364.732 744.2 364.732ZM744.102 342.661C745.698 342.661 746.918 343.06 747.765 343.858C748.627 344.655 749.181 345.949 749.425 347.74H737.803C738.503 344.354 740.603 342.661 744.102 342.661ZM761.603 364H768.39V351.304L777.522 364H786.164L776.008 350.816L785.53 337.632H777.326L768.39 350.328V337.632H761.652L761.603 364ZM795.04 364H801.681V343.491H810.323V337.632H786.397V343.491H795.04V364ZM821.812 364.732C823.847 364.732 825.556 364.423 826.939 363.805C828.339 363.17 829.625 362.161 830.797 360.777V364H836.607V347.886C836.607 346.682 836.559 345.591 836.461 344.614C836.363 343.638 836.054 342.661 835.533 341.685C834.605 339.927 833.238 338.69 831.431 337.974C829.625 337.257 827.558 336.899 825.23 336.899C822.056 336.899 819.549 337.583 817.71 338.95C815.871 340.317 814.618 342.092 813.95 344.273L819.956 346.177C820.38 344.973 821.12 344.134 822.178 343.662C823.236 343.19 824.253 342.954 825.23 342.954C826.793 342.954 827.956 343.247 828.721 343.833C829.486 344.403 829.934 345.306 830.064 346.543C827.59 346.901 825.409 347.251 823.521 347.593C821.633 347.919 820.054 348.309 818.784 348.765C816.669 349.546 815.179 350.612 814.317 351.963C813.454 353.298 813.023 354.885 813.023 356.724C813.023 358.189 813.356 359.532 814.024 360.753C814.707 361.957 815.7 362.926 817.002 363.658C818.321 364.374 819.924 364.732 821.812 364.732ZM823.228 359.508C822.089 359.508 821.185 359.255 820.518 358.751C819.851 358.23 819.517 357.522 819.517 356.627C819.517 355.959 819.729 355.39 820.152 354.918C820.575 354.429 821.275 353.99 822.251 353.599C823 353.323 823.92 353.07 825.01 352.842C826.117 352.598 827.785 352.289 830.015 351.915C829.999 352.549 829.95 353.249 829.869 354.014C829.788 354.763 829.608 355.422 829.332 355.992C829.153 356.366 828.811 356.83 828.306 357.384C827.818 357.937 827.151 358.433 826.304 358.873C825.474 359.296 824.449 359.508 823.228 359.508Z" fill="white"/>
<path d="M528.667 120.8C528.666 116.693 530.317 112.757 533.248 109.88C536.179 107.002 540.143 105.424 544.25 105.5C549.116 105.474 553.759 107.538 557 111.167C560.241 107.538 564.884 105.474 569.75 105.5C573.857 105.424 577.821 107.002 580.752 109.88C583.683 112.757 585.334 116.693 585.333 120.8C585.333 135.975 567.259 147.433 557 156.5C546.763 147.357 528.667 135.987 528.667 120.8Z" fill="white"/>
</svg>
