<svg width="115" height="69" viewBox="0 0 115 69" fill="none" xmlns="http://www.w3.org/2000/svg">
<g clip-path="url(#clip0_3_8)">
<path d="M115 0V34.2024C115 53.3393 99.3095 69.1602 80.1363 69C71.0207 68.9215 62.3053 65.2521 55.8873 58.7906C49.4694 52.3291 45.8686 43.5986 45.8689 34.5V34.4215C45.869 32.922 45.5718 31.4373 44.9946 30.0529C44.4174 28.6684 43.5716 27.4116 42.5057 26.3548C41.4399 25.298 40.1752 24.462 38.7843 23.8951C37.3935 23.3281 35.904 23.0413 34.4017 23.0512C28.1439 23.097 23.1376 28.2573 23.0983 34.4967V62.7867C23.094 64.4378 22.4331 66.0196 21.261 67.1846C20.0888 68.3497 18.5012 69.0026 16.847 69H0V34.4215C0.0275443 25.5647 3.4664 17.0577 9.60459 10.6616C15.7428 4.26562 24.1102 0.470516 32.9744 0.0620577C41.8386 -0.346401 50.5208 2.66307 57.2233 8.4674C63.9258 14.2717 68.1353 22.4263 68.9803 31.2429C69.0518 32.0466 69.0595 32.8547 69.0033 33.6596C68.9836 33.9114 68.9771 34.1664 68.9771 34.4215C68.9764 34.9752 69.0158 35.5282 69.095 36.0762C69.4969 38.7823 70.8626 41.2532 72.9417 43.0359C75.0208 44.8185 77.6739 45.7935 80.4148 45.782C86.712 45.7526 91.7543 40.5498 91.7543 34.2515V14.8399C91.7539 13.6783 92.0788 12.5397 92.6925 11.5528C93.3062 10.5658 94.1842 9.76975 95.2272 9.2545L113.981 0H115Z" fill="white"/>
</g>
<defs>
<clipPath id="clip0_3_8">
<rect width="115" height="69" fill="white"/>
</clipPath>
</defs>
</svg>
