<svg width="351" height="211" viewBox="0 0 351 211" fill="none" xmlns="http://www.w3.org/2000/svg">
<g clip-path="url(#clip0_4_5)">
<path d="M351 0V104.59C351 163.11 303.11 211.49 244.59 211C216.768 210.76 190.167 199.539 170.578 179.78C150.989 160.021 139.999 133.323 140 105.5V105.26C140 100.675 139.093 96.1343 137.331 91.9008C135.57 87.6672 132.988 83.8239 129.735 80.5922C126.482 77.3605 122.622 74.8042 118.377 73.0704C114.131 71.3366 109.585 70.4597 105 70.49C85.9 70.63 70.62 86.41 70.5 105.49V192C70.4868 197.049 68.4697 201.886 64.8921 205.449C61.3145 209.011 56.4689 211.008 51.42 211H0V105.26C0.08407 78.1762 10.5801 52.1618 29.3149 32.603C48.0497 13.0442 73.5884 1.43883 100.644 0.189771C127.699 -1.05928 154.198 8.1436 174.655 25.8931C195.113 43.6425 207.961 68.5791 210.54 95.54C210.758 97.9976 210.782 100.469 210.61 102.93C210.55 103.7 210.53 104.48 210.53 105.26C210.528 106.953 210.648 108.644 210.89 110.32C212.117 118.595 216.285 126.151 222.631 131.602C228.976 137.054 237.074 140.035 245.44 140C264.66 139.91 280.05 124 280.05 104.74V45.38C280.049 41.8279 281.041 38.3462 282.914 35.3281C284.787 32.3099 287.466 29.8756 290.65 28.3L347.89 0H351Z" fill="black"/>
</g>
<defs>
<clipPath id="clip0_4_5">
<rect width="351" height="211" fill="white"/>
</clipPath>
</defs>
</svg>
